<svg width="224" height="52" viewBox="0 0 224 52" fill="none" xmlns="http://www.w3.org/2000/svg">
  <polygon points="26,2 46,13 46,35 26,46 6,35 6,13" fill="#0f2d60" />
  <polygon points="26,6 43,16 43,32 26,43 9,32 9,16" fill="none" stroke="#2563eb" stroke-width="0.8" opacity="0.5" />
  <circle cx="26" cy="24" r="11.5" fill="none" stroke="#2563eb" stroke-width="1.4" />
  <path d="M14.5 24 Q26 19.5 37.5 24" fill="none" stroke="#60a5fa" stroke-width="0.9" />
  <path d="M14.5 24 Q26 28.5 37.5 24" fill="none" stroke="#60a5fa" stroke-width="0.9" />
  <path d="M17 17.5 Q26 15 35 17.5" fill="none" stroke="#93c5fd" stroke-width="0.7" opacity="0.7" />
  <path d="M17 30.5 Q26 33 35 30.5" fill="none" stroke="#93c5fd" stroke-width="0.7" opacity="0.7" />
  <path d="M26 12.5 Q21.5 24 26 35.5" fill="none" stroke="#93c5fd" stroke-width="0.9" opacity="0.8" />
  <path d="M26 12.5 Q30.5 24 26 35.5" fill="none" stroke="#93c5fd" stroke-width="0.9" opacity="0.8" />
  <circle cx="26" cy="24" r="2.2" fill="#60a5fa" />
  <circle cx="26" cy="24" r="1" fill="#07111f" />
  <text x="57" y="25" font-family="-apple-system,BlinkMacSystemFont,'Segoe UI',sans-serif" font-size="21" font-weight="700" fill="#ffffff" letter-spacing="-0.8">Geo</text>
  <text x="97" y="25" font-family="-apple-system,BlinkMacSystemFont,'Segoe UI',sans-serif" font-size="21" font-weight="200" fill="#60a5fa" letter-spacing="-0.4">vault</text>
  <text x="57" y="39" font-family="-apple-system,BlinkMacSystemFont,'Segoe UI',sans-serif" font-size="7" font-weight="600" fill="#60a5fa" letter-spacing="2.4">APAC GEO AUTHORITY</text>
</svg>
